<svg viewBox="0 0 1000 310" version="1.1" xmlns="http://www.w3.org/2000/svg" id="Layer_1">
  <defs>
    <style>
      .cls-1 {
        fill: #000;
        stroke-width: 0px;
      }
    </style>
  </defs>
  <path d="M150.95,5.44c1.07.09,2.13.26,3.2.26,32.12.01,64.24.01,96.37.01,1.06,0,2.12,0,3.41,0,.35,4.88.75,9.49,1,14.1,1.75,31.66,1.92,63.31-.96,94.93-2.05,22.56-6.59,44.55-15.1,65.65-11.02,27.33-27.64,50.89-47.99,71.98-18.43,19.1-38.82,35.93-60.3,51.48-.94.68-1.65,1.08-2.8.17-19.62-15.58-39.41-30.95-57.03-48.87-18.8-19.12-35.01-40.07-46.48-64.46-9.75-20.75-15.96-42.54-18.2-65.3-1.71-17.31-2.45-34.71-3.62-52.07-.13-1.89-.3-3.78-.45-5.67,0-6.3,0-12.61,0-18.91.13-1.31.33-2.62.38-3.93.54-12.25,1.04-24.5,1.59-36.74.04-.88.34-1.75.52-2.62,48.82,0,97.64,0,146.46,0ZM129.15,301.9c7.79-6.06,15.39-11.8,22.81-17.78,19.09-15.39,36.99-32.01,52.51-51.08,20.54-25.24,34.67-53.61,41.77-85.38,5.46-24.47,7.04-49.39,7.11-74.35.06-20.54-1.13-41.09-1.63-61.63-.06-2.62-.86-3.24-3.41-3.24-66.34.06-132.67.04-199.01.02-13.45,0-26.9,0-40.35-.08-1.74,0-2.48.3-2.52,2.27-.42,18.4-1.32,36.79-1.34,55.19-.01,22.72,1.37,45.38,4.78,67.89,5.69,37.55,20.93,70.75,45.08,99.99,11.71,14.18,24.67,27.13,38.62,39.05,11.53,9.85,23.46,19.23,35.58,29.12Z" class="cls-1"></path>
  <path d="M825.15,212.25h-48.36v-68.57h-59.89v68.53h-48.43V72.11h48.34v56.83h59.82v-56.74h48.52v140.05Z" class="cls-1"></path>
  <path d="M592.46,72.13h48.53c.04.91.12,1.71.12,2.52.03,35.91.08,71.82.09,107.73,0,12.25-8.77,23.89-21.46,27.88-4.13,1.3-8.61,2.04-12.94,2.07-29.14.18-58.28.12-87.42.07-9.04-.02-17.4-2.42-24.63-8.01-6.98-5.4-10.8-12.52-10.81-21.41-.05-36.32-.02-72.65-.02-108.97,0-.57.09-1.13.16-1.85h48.47v3.1c0,34.75,0,69.5,0,104.25,0,1.82-.02,3.66.19,5.47.92,8.04,5.41,12.69,13.49,12.89,11.94.29,23.91.17,35.86-.1,5.95-.14,8.97-3.1,9.76-8.97.48-3.6.57-7.27.57-10.91.05-34.17.04-68.34.05-102.51,0-.98,0-1.96,0-3.24Z" class="cls-1"></path>
  <path d="M484.08,212.36c-.81,0-1.62,0-2.43,0-18.84,0-37.69-.02-56.53.07-2.38.01-4.21-.6-6.06-2.11-20.72-16.86-41.5-33.65-62.26-50.46-.69-.56-1.41-1.09-2.57-1.98v54.35h-48.45V72.19h48.45v52.9c1.06-.81,1.7-1.26,2.3-1.77,19.47-16.55,38.92-33.12,58.45-49.6,1.14-.96,2.9-1.64,4.38-1.66,12.95-.12,25.9-.06,38.85-.04.7,0,1.4.08,2.68.17-25.41,21.99-50.41,43.62-75.7,65.5,33.16,24.8,66.13,49.47,99.11,74.13-.07.18-.14.36-.2.54Z" class="cls-1"></path>
  <path d="M998,212.37h-145.37V72.24h48.42v111.32c1.23,0,2.19,0,3.16,0,20.5-.01,41-.01,61.5-.08,1.69,0,2.93.41,4.17,1.62,8.74,8.5,17.56,16.92,26.35,25.38.51.49.98,1.04,1.77,1.88Z" class="cls-1"></path>
  <path d="M507.92,6.33c13.63.03,24.56,11.2,24.56,25.11,0,13.86-11.13,25.19-24.63,25.08-13.53-.12-24.59-11.57-24.47-25.33.13-13.86,11.02-24.89,24.54-24.86Z" class="cls-1"></path>
  <path d="M617.06,6.33c13.62.02,24.57,11.22,24.55,25.12-.01,13.78-10.93,25-24.39,25.07-13.59.06-24.81-11.45-24.69-25.33.13-13.88,10.98-24.88,24.52-24.85Z" class="cls-1"></path>
  <path d="M955.56,87.65c-.04,8.59-6.79,15.33-15.34,15.31-8.48-.02-15.33-6.87-15.36-15.37-.04-8.54,6.95-15.48,15.55-15.44,8.48.04,15.19,6.9,15.15,15.5ZM952.01,87.67c.04-6.77-5.17-12.36-11.62-12.46-6.4-.1-11.74,5.44-11.79,12.26-.05,6.86,5.06,12.33,11.6,12.43,6.45.1,11.77-5.41,11.81-12.22Z" class="cls-1"></path>
  <path d="M19.35,24.04h219.46c.26,3.46.69,6.83.73,10.2.23,20.72.87,41.45.38,62.16-.43,18.54-2.41,37.02-7.01,55.1-7.24,28.39-20.83,53.42-39.94,75.54-18.55,21.47-40.15,39.54-63.05,56.14-.2.14-.44.23-.83.43-6.34-4.96-12.78-9.9-19.11-14.98-18.88-15.15-36.59-31.49-51.51-50.67-18.57-23.87-30.59-50.62-35.61-80.47-2.64-15.72-3.82-31.56-4.48-47.47-.86-20.74-.45-41.45.64-62.16.06-1.23.22-2.45.34-3.82ZM95.61,230.49c.14-.62.29-1.25.43-1.87-.16-.17-.32-.35-.48-.52-1.26,4.01-5.45,2.77-8.41,4.91h5.09c-1.15.18-2.29.36-4.06.64,3.02,2.88,5.5,5.24,8.1,7.72.55-.61.96-1.08,1.38-1.55-.85,1.43-.54,2.47.78,3.57,5.22,4.36,10.33,8.84,15.5,13.26.39.33.9.51,1.19.67.51-2.84,1.08-5.5,1.42-8.19.21-1.68,1.32-2.22,2.61-2.25,2.04-.05,3.01-1.07,3.47-2.88.32-1.28.57-2.6,1.06-3.82.82-2.04-.12-2.8-1.71-2.95,1.02-4.51,2.02-8.93,3.04-13.47.37.63.81,1.29,1.17,2,4.61,9.12,9.22,18.24,13.82,27.36.19.37.29.83.58,1.08.33.29,1.09.67,1.2.56,2.09-2.14,3.06.3,4.46,1.18,16.53-13.51,31.59-28.32,44.72-45.36-.9-.33-1.54-.57-2.18-.8,4.1-.02,5.26-3.23,6.96-5.9-1.02-1.21-1.98-1.96-3.37-.69-2.13,1.95-4.79,1.8-7.24-.53,1.62-1.29,3.34-2.44,4.78-3.87,1.47-1.46,2.65-3.21,3.96-4.83-.23-.24-.46-.48-.68-.72-4.91-.32-6.55,4.72-10.23,6.71-.78-1.9-2.05-1.64-3.57-.81-.66.36-1.88.68-2.27.35-1.7-1.46-2.8-.31-4.13.54-2.79,1.79-5.58,3.59-8.5,5.16-2.46,1.33-5.12,2.28-7.65,3.5-2.36,1.14-3.82,5.73-2.46,8.07-2,1.03-3.98,2.05-6.11,3.14-2.16-2-4.34-4.17-6.7-6.11-.75-.62-2.33-1.24-2.91-.88-2.81,1.78-5.63,2.76-8.91,1.55-.14-.05-.34.06-.49.01-.22-.07-.43-.21-.66-.33.16-.71.3-1.37.53-2.39h-10.98c-.12-.35-.26-.73-.37-1.12-.31-1.1-.55-2.52-2.04-2.23-.93.18-1.74,1.1-2.55,1.75-1.01.8-1.92,1.72-2.95,2.49-1.99,1.48-3.97,2.65-4.8,5.46-.6,2.04-1.04,4.94-4.34,5.36-1.48.19-2.63,2.27-2.37,3.23-1.05,1.27-2.09,2.53-3.14,3.8ZM206.22,129.8c1.45.26,2.67.18,3.52.69,2.11,1.28,4.22,1.25,6.46.65,2.14-.57,4.29-1.09,6.53-1.66.46,1.04.91,2.05,1.43,3.23,3.83-11.38,6.15-85.23,3.12-96.68H30.54c-1.13,34.06-1.17,67.83,4.41,101.66,4.49-2.83,8.04-5.81,10.22-10.22.84-1.69,1.79-3.45,3.11-4.76,1.35-1.34,3.12-2.89,4.86-3.09,7.35-.86,12.34-4.64,15.77-11.03,1.15-2.14,2.81-4.07,4.54-5.79.64-.64,2.19-.63,3.28-.51,4.49.51,8.57.24,11.82-3.6,1-1.18,2.82-1.91,4.4-2.31,3.42-.87,6.94-1.34,10.39-2.09.76-.16,1.4-.84,2.13-1.21,1.35-.69,2.82-2.02,4.07-1.85,2.4.32,3.72-.69,5.05-2.28,1.12-1.33,2.3-2.63,3.56-3.82,4.34-4.09,8.72-8.14,13.09-12.19,1.19-1.1,2.3-1.39,2.74-.11,1.18-.84,2.3-2.21,3.62-2.45,2.03-.36,2.55,1.63,3.21,3.16.39.9,1.23,1.67,1.41,2.59.53,2.68,1.82,3.07,3.88,1.47,2.61,3.19,5.5,5.98,6.21,10.19.28,1.69.79,3.46,1.66,4.92,1.91,3.21,3.81,6.53,6.32,9.24,1.8,1.95,4.62,2.93,6.91,4.48.91.62,1.97,1.44,2.31,2.4,1.42,4.09,2.29,8.3,4.83,12.06,1.63,2.42,2.36,5.4,5.37,6.76-1.1-.21-2.08-.67-3.12-.83-.91-.13-1.87.08-2.81.14.43,1.11.57,2.8,1.37,3.22,1.7.9,3.8.99,5.63,1.69,2.69,1.03,5.32,2.24,7.91,3.52.36.18.36,1.18.43,1.81.07.63.02,1.28.02,2.19,1.13-.23,2.07-.43,3.02-.62.14.25.29.5.43.76-1.78,1.25-3.56,2.5-5.44,3.83,2.02,3.3,4.32,5.8,8.56,4.07.25-.56.61-1.37.97-2.18.81.61,1.73,1.14,2.41,1.87.48.52.54,1.41.98,1.98.35.45.99.67,1.5.99.21-.63.68-1.31.57-1.88-.54-2.86-1.62-5.27-4.69-6.48-2.86-1.12-2.91-1.88-1.47-4.03,3.32-.54,6.18-1,9.04-1.46l-.08-.73c-.8-.09-1.61-.13-2.39-.3-.8-.17-1.57-.45-2.35-.69,1.09-.44,2.04-.34,2.99-.22,3.25.39,4.02-.49,3.04-4.51ZM158.6,148.04c-2.79.59-4.11,2.13-5.29,3.82-1.43,2.03-2.78,4.12-4.24,6.13-1.31,1.81-3.04,2.58-5.38,2.37-1.07-.1-2.52.4-3.28,1.15-3.96,3.89-7.79,7.93-11.59,11.99-.63.67-1.14,1.73-1.16,2.63-.05,1.79.15,3.62.47,5.39.81,4.56-1.95,7.29-4.91,10.15-.1-.91-.17-1.6-.3-2.74-.82,2.02-1.34,3.67-2.17,5.15-.3.54-1.33.67-2.03.99-.14-.73-.66-1.74-.36-2.16,2.4-3.35,1.66-7.32,2.36-10.99.08-.44-.04-.93-.07-1.39-.17,0-.34-.02-.51-.03-.85,3.17-1.7,6.34-2.54,9.51-.27,0-.55-.02-.82-.03,0-1.75-.15-3.52.03-5.25.3-2.86.74-5.71,1.29-8.53.1-.51.95-.92,1.51-1.29,1.74-1.15,4.49-1.93,5.03-3.48.69-1.99,1.87-3.35,3.01-4.89,1.58-2.13,2.83-4.73,4.87-6.23,3.13-2.29,5.07-5.29,6.95-8.46.31-.53.34-1.22.5-1.84-.19-.11-.38-.21-.57-.32-2.89,2.19-5.94,4.21-8.63,6.62-2.63,2.35-6.59,3.16-8.02,6.89-.08.21-.47.3-.72.44-.27-.12-.54-.24-.81-.36.58-1.95.77-4.14,1.82-5.8,1.65-2.62,3.86-4.89,6.18-7.71-4.17,2.15-7.8,3.85-11.23,5.89-1.25.74-1.89,2.43-3.02,3.46-.73.66-1.82,1.25-2.77,1.28-1.28.03-1.59-.96-1.49-2.28.25-3.38.14-6.79.46-10.17.18-1.84.81-3.68,1.53-5.4.28-.67,1.35-1.06,2.11-1.47.66-.36,1.71-.37,2.06-.89,2.12-3.12,4.08-6.35,6.12-9.57,2.76,1.15,5.76-.13,6.79-2.98.27-.74.9-1.34,1.34-2.02.42-.64.89-1.27,1.2-1.96.74-1.65,1.23-3.43,2.13-4.98,1.98-3.44,4.32-6.69,6.17-10.19.88-1.67,1.31-3.75,1.28-5.64-.02-.91-1.47-2.01-2.51-2.56-.4-.21-1.76.68-2.19,1.37-1.04,1.68-1.7,3.58-2.66,5.31-1.56,2.82-3.14,5.63-4.91,8.32-.5.77-1.67,1.1-2.53,1.64-.13-.13-.27-.27-.4-.4,1.44-3.36,2.87-6.72,4.31-10.07-1.22.74-2.37,1.69-2.59,2.82-.63,3.2-2.9,4.84-5.39,6.3-.54.32-1.48-.05-2.23-.1.18-.66.17-1.47.57-1.94,1.28-1.51,2.7-2.9,4.07-4.33-3.25-3.19-3.41-5.11-.21-6.83,5.66-3.05,4.9-8.8,6.52-13.57-1.43-.48-2.47-.82-3.49-1.16,1.39-4.79,2.69-9.25,4.05-13.94-.97.74-2.01,1.38-2.84,2.21-6.74,6.75-13.44,13.53-20.14,20.31-.28.29-.68.67-.68,1,.1,4.33-4.1,5.78-5.65,9.29-1.59-3.07-1.91-3.13-4.18-1.22-1.94,1.64-3.88,3.29-5.88,4.85-.73.57-1.63.9-2.6,1.42-.65-4.6,3.12-6.02,5.17-8.8-1.42-.05-2.74.11-3.72.78-3.23,2.2-4.86,6.61-9.53,6.82-1.66,2.4-4.07,1.6-6.31,1.58.14-.92.28-1.75.41-2.58-.19-.16-.39-.32-.58-.47-3.61,2.3-7.43,4.35-10.78,6.99-2.88,2.27-5.84,4.29-9.45,4.56-4.33.33-6.52,2.95-8.57,6.26-1.82,2.93-3.91,5.72-6.14,8.36-1.15,1.36-2.98,2.12-4.24,3.4-.6.61-1,1.88-.83,2.72,3.17,16.28,8.81,31.7,16.69,46.29,1.91,3.53,4.03,6.94,6.09,10.49.89-.65,1.35-.99,1.81-1.33-1.33,1.31-.99,2.36-.05,3.76,7.19,10.61,15.38,20.38,24.28,29.58.31.32.7.57,1.07.87,2.52-4.44,2.56-5.29.32-6.3,1.39-3.71,2.79-7.43,4.17-11.15.43-1.16,1.4-2.58,1.06-3.48-1.17-3.12.81-5.39,1.55-8,.72-2.54,1.25-5.13,1.86-7.71-.52-.34-1.05-.68-1.57-1.01-.69,1.28-1.37,2.55-2.04,3.8-1.12-.87-1.78-1.38-2.61-2.02,2.83-4.23,5.17-8.53,4.88-13.8-.62,0-1.14-.12-1.23.02-.98,1.56-1.9,3.17-3.05,5.12.38-6.22,1.62-12.11-1.31-18.3-1.11,1.42-1.91,2.51-2.78,3.55-.82.97-1.72,1.88-2.59,2.82-.19-.19-.38-.38-.56-.57,1.78-2.44,3.57-4.88,5.57-7.61,2.02,1.79,3.77,3.16,5.3,4.75,1.45,1.51,3.2,3.04,3.88,4.91,1.62,4.5,2.91,9.16,3.88,13.84.47,2.27.87,4.24,2.87,5.66.51.37.78,1.25.92,1.94.85,4.06,1.06,8.36,4.54,11.38.17.15.22.44.35.65.41.62.85,1.23,1.27,1.84.58-.55,1.25-1.03,1.72-1.65,1.18-1.56,2.04-3.59,4.66-2.35.24.12.96-.32,1.19-.68,2.06-3.18,4.98-6.17,5.84-9.66.97-3.93,3.18-5.76,6.31-7.26,2.51-1.2,4.61-2.64,4.52-5.84-.01-.38.16-.88.42-1.14,1.83-1.76,2.32-3.76,2.11-6.34-.18-2.27,2.25-3.7,4.78-3.6,2,.08,2.58,1.06,1.93,2.79,1.89.65,2.95.02,4.05-1.29,4.02-4.74,8.51-8.98,13.72-12.52,1,2.23,16.26,5.12,21.26,4.14-.65-.94-1.12-1.9-1.84-2.61-2.06-2.02-3.21-4.36-3.24-7.27,0-.78-.2-1.75-.68-2.3-2.85-3.23-5.73-6.45-8.78-9.49-1.61-1.6-3.55-2.94-5.62-2.18-.18-1.93-.37-3.98-.56-6.04-.31-.01-.62-.03-.93-.04-2.18,2.08-2.43,5.03-3.14,7.75-.08.32.43,1.13.72,1.16,2.69.24,4.13,1.89,5.14,4.17.17.38.78.58,1.21.84,3.11,1.89,6.22,3.76,9.32,5.66,1.26.77,1.39,1.81,0,2.38-.94.39-2.23.4-3.23.12-2.57-.73-5.02-1.9-7.61-2.54-2.12-.53-4.37-.55-6.63-.8.53-2.14,1.02-4.08,1.61-6.48ZM203.21,192.59c-4.89-4.43-9.37-8.81-14.23-12.73-2.11-1.71-4.96-2.52-7.53-3.62-.51-.22-1.33-.05-1.87.22-7.87,3.96-15.72,7.96-23.56,11.97-1.7.87-2.89,2.1-2.92,4.92,1.72-.66,3.1-1.16,4.46-1.71,4.34-1.77,8.6-3.73,13.01-5.28,4.82-1.7,9.78-2.58,14.98-2.92,3.46-.23,5.41.61,7.22,3.06.15.2.31.39.48.57,1.5,1.64,2.76,3.32,1.81,5.77-.14.37.17,1.25.52,1.43,1.58.84,3.25,1.51,5.15,2.36.94-1.53,1.87-3.04,2.48-4.03ZM157.19,109.63c.28.29.55.58.83.87.85,4.49,3.12-.78,4.25.75.46-1.34,1.02-2.47,1.2-3.66.1-.7-.17-1.78-.68-2.18-.86-.67-2.55-1.61-3-1.27-4.12,3.13-6.81,7.36-8.83,12.01.18.16.37.32.55.48,1.9-2.33,3.79-4.67,5.69-7ZM81.13,106.13c3.61.31,13.48-5.96,14.4-9.09-1.69.42-3.51.43-4.78,1.27-2.36,1.57-4.4,3.63-6.59,5.46-.91.77-1.88,1.47-3.04,2.36ZM209.74,152.85c.38-.01.77-.02,1.15-.04.62-.98,1.83-2.05,1.7-2.9-.15-.96-1.43-2.28-2.39-2.45-1.53-.27-2.81.95-2.47,2.59.21,1.02,1.31,1.87,2.02,2.79ZM135.22,160.56l-.74-.25c-2.41,2.01-3.28,4.59-2.37,8.31,1.18-3.07,2.15-5.56,3.11-8.06ZM131.14,81.38c.28.11.55.21.83.32.69-1.92,1.37-3.84,2.06-5.76-.32-.11-.63-.21-.95-.32-.65,1.92-1.3,3.84-1.94,5.76Z" class="cls-1"></path>
  <path d="M937.65,89.77v6.53h-3.48v-17.18c2.75,0,5.47-.14,8.16.05,2.09.14,3.83,1.11,4.37,3.42.56,2.35-.33,4.04-1.97,4.93.87,2.95,1.71,5.79,2.56,8.66-3.96.69-4.06.63-4.66-2.91-.6-3.52-1.35-4.07-4.97-3.48ZM937.81,80.9v6.14c1.78-.61,3.37-1.01,4.78-1.75.34-.18.42-1.95.08-2.16-1.28-.83-2.78-1.32-4.86-2.23Z" class="cls-1"></path>
  <path d="M183.82,128.95c2.48-3.91,4.78-7.61,7.16-11.25.99-1.52,2.24-2.86,3.23-4.38,1.46-2.23,3.46-2.35,5.37-1.11,5.12,3.33,10.12,6.84,15.09,10.4.74.53,1.03,1.71,1.52,2.59-.12.27-.24.53-.36.8-2.27-.12-4.59-.57-6.8-.26-2.56.36-5.03,1.38-7.54,2.14-1.08.33-2.14,1-3.22,1.02-4.85.11-9.71.05-14.45.05ZM195.28,113.1c1.74,2.05,3.05,3.59,4.56,5.36,1.19-.63,2.43-1.3,4.05-2.16-2.72-1.63-4.63-3.83-8.61-3.21Z" class="cls-1"></path>
  <path d="M84.01,115.76c.61.18,1.5.45,2.01.61-.42,1.2-.64,2.76-1.46,3.89-1.21,1.68-2.66,4.07-4.32,4.36-3.46.6-5.93,2.66-8.82,4.13-2.95,1.51-6.08,2.69-9.12,4.02-.07-.2-.14-.41-.21-.61,2.15-2.24,4.49-4.34,6.41-6.77,1.94-2.45,5.11-2.9,7.22-5.36,1.86-2.18,5.44-2.89,8.28-4.26Z" class="cls-1"></path>
  <path d="M113.84,129.43c-1.67-2.24-3.07.19-5.09.24,1.44-2.83,3.81-4.55,6.32-5.15,2.71-.65,4.45-2.28,6.32-3.9,1.32-1.14,2.41-1.75,4.2-.84.65.33,1.85-.42,2.98-.74-1.09,1.23-.74,3.89-3.78,3.15-.33-.08-.94.58-1.28,1.01-3.12,3.95-6.21,7.93-9.59,12.25.89-1.96,1.7-3.55,2.34-5.21.31-.81.31-1.74.46-2.62-.79.42-1.58.82-2.36,1.26-.2.12-.34.35-.52.54Z" class="cls-1"></path>
  <path d="M77,180.34c-2.15,2.35-4.3,4.71-6.46,7.06-.21-.2-.43-.39-.64-.59l6.45-7.07c.21.2.43.4.64.6Z" class="cls-1"></path>
  <path d="M186.07,208.62c-1.72.5-3.19,1.04-4.7,1.31-.5.09-1.12-.49-1.69-.77.35-.54.6-1.43,1.06-1.56,1.79-.52,3.67-.93,5.32,1.02Z" class="cls-1"></path>
</svg>