<svg xmlns="http://www.w3.org/2000/svg" fill="none" viewBox="0 0 500 79" height="79" width="500">
<path fill="#565656" d="M1 2.85986H17.16V61.2749H47.095V76.1899H1V2.85986Z"></path>
<path fill="#565656" d="M135.5 2.85986H152.615L170.765 56.8499H170.98L189.1 2.85986H205.17L179.41 76.1849H161.08L135.5 2.85986Z"></path>
<path fill="#565656" d="M379.55 2.84485H398.2L426.01 76.1849H408.635L402.91 60.5548H373.4L367.645 76.1849H351.395L379.55 2.84485ZM388.175 20.2198L378.12 46.8899H398.215L388.175 20.2198Z"></path>
<path fill="#565656" d="M91.365 1.78491C68.87 1.78491 53.29 17.6549 53.29 39.5549C53.29 61.4549 68.87 77.3099 91.365 77.3099C113.86 77.3099 129.455 61.4849 129.455 39.5549C129.455 17.6249 113.83 1.78491 91.365 1.78491ZM91.365 61.8049C77.695 61.8049 69.815 52.0549 69.815 39.5549C69.815 27.0549 77.73 17.2899 91.365 17.2899C105 17.2899 112.93 27.0549 112.93 39.5549C112.93 52.0549 104.96 61.8049 91.365 61.8049Z"></path>
<path fill="#565656" d="M235.875 61.2749V17.7749H270.485V2.85986H219.715V76.1849H271.4V61.2749H235.875Z"></path>
<path fill="#565656" d="M249.075 30.2599H264.155V48.3949H249.075V30.2599Z"></path>
<path fill="#565656" d="M333.61 20.7999C328.65 17.3449 322.705 15.5849 316.66 15.7899C309.75 15.7899 304.995 18.1449 304.995 22.9749C304.995 27.5299 308.835 29.2649 314.595 30.5699C315.99 30.8899 321.355 32.1949 323.025 32.6049C336.055 35.7649 343.195 42.6599 343.195 54.8699C343.195 69.0549 331.38 78.0599 314.795 78.0599C298.21 78.0599 289.065 71.1799 286.79 69.4199L294.385 56.5249C299.845 60.9749 306.69 63.3699 313.735 63.2999C323.15 63.2999 326.965 59.8499 326.965 55.6149C326.965 51.3799 322.94 48.8399 316.655 47.3399L307.905 45.2449C295.605 42.2049 288.83 35.7549 288.83 23.9799C288.83 12.2049 296.285 0.999878 315.41 0.999878C331.145 0.999878 338.66 6.08988 341.38 7.93988L333.61 20.7999Z"></path>
<path fill="#565656" d="M487.08 54.2998C482.965 59.2898 476.76 62.0698 470.3 61.8198C456.63 61.8198 448.75 52.0548 448.75 39.5548C448.75 27.0548 456.63 17.3048 470.3 17.3048C476.71 17.0498 482.88 19.7748 487.005 24.6848L498.835 13.5848C492.09 6.20479 482.13 1.78479 470.3 1.78479C447.805 1.78479 432.225 17.6548 432.225 39.5548C432.225 61.4548 447.79 77.3248 470.3 77.3248C482.235 77.3248 492.245 72.7698 499.005 65.3398L487.08 54.2998Z"></path>
</svg>
