<svg xmlns="http://www.w3.org/2000/svg" fill="none" viewBox="0 0 1000 130" height="130" width="1000">
<path fill="#565656" d="M126.69 1.23999V45.16C127.47 82.94 106.2 112.16 67.29 127.55L64.44 128.76L61.59 127.55C22.51 112.16 1.23999 82.94 2.01998 45.16V1.23999L9.96999 1.84999C10.75 1.84999 28.73 2.70999 47.15 9.45999C53.63 11.97 59.51 14.73 64.44 17.93C69.37 14.73 75.16 11.96 81.73 9.45999C99.97 2.71999 117.95 1.84999 118.73 1.84999L126.69 1.23999ZM71.96 54.41C71.96 46.8 69.11 42.39 64.44 37.46C59.77 42.47 56.75 46.8 56.92 54.41C56.92 61.15 60.81 64.18 64.44 64.18C68.07 64.18 71.96 61.07 71.96 54.41ZM16.89 45.5C16.28 75.93 33.14 99.97 64.44 113.11C95.56 99.97 112.42 75.93 111.64 45.33V17.23C102.74 18.7 87.86 21.73 75.85 28.47C82.94 36.34 86.57 43.95 86.57 54.41C86.57 70.23 75.16 78.7 64.35 78.7C53.54 78.7 42.13 70.23 42.13 54.41C42.13 43.86 45.76 36.43 52.85 28.47C40.83 21.73 26.05 18.7 17.06 17.23V45.5H16.89ZM809.26 76.37L853.78 10.23H833.46L803.2 53.72L800.35 58.56L797.5 53.72L767.59 10.23H747.1L791.8 76.37V119.68H809.26V76.37ZM991.25 70.66C984.33 64.52 976.03 61.76 960.99 56.74L957.1 55.44C956.32 55.18 955.46 54.83 954.51 54.75H954.34C946.82 52.33 934.54 48.53 934.97 38.06C935.23 29.59 941.28 24.57 952.61 23.54C960.91 22.68 968.86 24.75 973.79 28.64C976.47 30.8 978.11 34.17 978.46 37.89H996.96C996.79 30.71 994.11 24.58 988.66 19.47C980.71 12.03 967.74 7.87999 953.3 8.31999C937.22 8.74999 929.35 13.85 926.07 16.79C919.59 22.5 916.47 29.93 916.47 38.75C916.47 59.24 934.97 65.38 945.95 69.01C946.47 69.18 946.9 69.36 947.33 69.53C948.02 69.79 948.63 69.96 949.23 70.22L955.71 72.55C970.41 77.65 980.09 81.02 980.09 90.53C980.09 95.03 978.02 99 973.61 102.12C970.15 104.63 964.45 106.1 958.39 106.1C948.02 106.1 933.84 104.37 932.11 88.81H913.61C913.78 98.49 918.11 106.79 926.23 112.67C934.01 118.38 945.34 121.57 957.7 121.75H958.31C969.55 121.75 981.05 118.55 987.19 113.45C993.93 107.92 997.56 100.14 997.91 90.19C998.52 82.32 996.27 75.67 991.25 70.74V70.66ZM315.94 43.86C315.94 57.78 308.59 68.59 295.8 73.6L321.82 119.68H301.94L277.99 76.54H241.59V119.68H224.3V10.23H278.59C301.33 10.23 315.85 23.37 315.85 43.86H315.94ZM241.5 60.98H278.5C290.95 60.98 298.38 54.58 298.38 43.86C298.38 33.14 291.03 26.14 278.5 26.14H241.5V60.98ZM407.67 8.32999C374.3 8.32999 350.18 32.19 350.18 64.96C350.18 97.73 374.39 121.93 407.67 121.93C440.95 121.93 464.99 98.07 464.99 64.96C465.16 32.02 440.96 8.32999 407.67 8.32999ZM407.67 105.85C384.33 105.85 368.07 88.99 368.07 64.87C368.07 40.75 384.32 24.32 407.67 24.32C431.01 24.32 447.09 41.44 447.09 64.87C447.09 88.3 430.58 105.85 407.67 105.85ZM529.49 26.22H489.46V10.23H586.81V26.22H546.78V119.77H529.49V26.22ZM696 57H641.36V10.32H623.9V119.77H641.36V73.08H696V119.77H713.46V10.32H696V57ZM876.52 10.32H893.98L892.34 38.85H878.25L876.61 10.32H876.52Z" clip-rule="evenodd" fill-rule="evenodd"></path>
</svg>
