<svg xmlns="http://www.w3.org/2000/svg" fill="none" viewBox="0 0 1000 406" height="406" width="1000">
<path fill="#565656" d="M664.88 202.91C664.88 228.94 666.26 241.05 667.3 250.82C667.3 251.34 667.39 251.94 667.47 252.46C656.57 251.34 628.12 250.99 614.72 252.46C615.07 245.71 615.5 239.06 615.93 232.31C617.23 211.47 618.52 190.45 618.52 169.7L618.17 68.86C618.17 55.89 617.82 43.69 617.48 30.12V28.74H598.71C595.34 28.74 559.45 29.52 540.34 31.25C541.46 26.93 542.24 6.69002 541.12 2.37002C570.09 4.19002 609.79 4.19002 638.5 4.19002H640.23C671.28 4.19002 704.66 3.58002 740.55 1.77002C739.43 7.91002 738.99 25.47 740.2 31.26C718.15 29.1 691.51 28.75 665.74 28.75V29.27C665.39 42.16 664.96 55.73 664.96 69.22V202.92H664.88V202.91ZM197.71 31.08C196.59 58.67 196.59 93.52 196.59 124.65C196.59 182.33 197.28 195.48 208.18 209.57C219.08 223.67 239.23 231.71 265.43 231.71C295.78 231.71 319.74 216.49 327.96 194.35C330.99 186.39 332.8 175.15 332.8 145.4C332.8 98.18 332.45 50.7 329.43 3.48002C334.71 4.17002 358.23 4.17002 363.85 3.48002L362.73 20.86C361.17 46.63 360.14 101.89 359.44 141.07C359.27 149.46 359.18 157.07 359.01 163.47C358.23 206.28 345.52 225.91 320.87 241.13C303.31 252.03 278.15 256.7 258 256.7C213.12 256.7 159.15 242.95 150.94 186.65C150.16 181.55 150.16 170.65 150.16 167.45V68.78C150.16 50.27 149.38 21.99 148.26 3.49002C156.91 4.53002 191.33 4.53002 198.85 3.49002L197.71 31.08ZM664.96 323.73C662.45 323.56 653.46 323.56 651.3 323.73C649.66 318.71 647.84 313.61 645.85 308.68C642.48 308.68 630.28 308.68 627.52 308.68C625.36 313.7 623.63 318.71 622.16 323.73C620.86 323.56 616.02 323.56 614.55 323.73C618.36 315.6 630.29 289.4 637.03 272.62C638.07 272.71 642.05 272.71 643 272.62C649.74 289.39 658.99 311.71 664.96 323.73ZM644.03 304.36C641.78 298.39 639.53 292.6 637.03 286.89C634.35 292.6 631.93 298.39 629.59 304.36H644.03ZM396.87 273.05C397.3 279.54 397.56 285.16 397.56 293.37V303.4C397.56 311.62 397.39 317.24 396.87 323.72C398.08 323.63 405.43 323.72 411.05 323.72C413.3 323.72 415.29 323.72 416.5 323.72C425.93 323.72 434.92 319.48 434.92 309.02C434.92 300.11 425.49 296.91 420.74 296.65C425.58 295.79 433.63 292.41 433.63 284.37C433.63 276.33 427.14 272.95 417.63 272.95C416.33 272.95 414.26 272.95 411.84 272.95C405.87 272.95 398.18 272.95 396.97 272.95L396.87 273.05ZM409.5 277.46C410.54 277.29 411.06 277.2 413.39 277.2C419.62 277.2 421.87 281.09 421.87 285.85C421.87 292.08 417.37 295.19 412.88 295.19H409.33C409.33 293.98 409.33 292.77 409.33 291.56C409.33 290.35 409.33 289.05 409.33 287.67C409.33 285.34 409.5 281.53 409.59 278.07V277.38L409.5 277.46ZM410.62 299.43C411.23 299.43 411.92 299.43 412.7 299.43C419.01 299.43 422.39 302.8 422.39 309.63C422.39 316.03 418.33 319.58 413.74 319.58C412.62 319.58 411.66 319.58 410.71 319.58C410.45 319.58 410.1 319.58 409.85 319.58C409.68 319.58 409.59 319.58 409.42 319.58H409.33C409.33 318.46 409.33 316.81 409.33 314.91C409.33 312.32 409.24 309.38 409.24 306.69C409.24 305.05 409.24 303.66 409.24 302.45C409.24 301.41 409.24 300.46 409.24 299.6C409.67 299.6 410.1 299.6 410.54 299.6L410.62 299.43ZM512.5 273.05C512.93 279.54 513.11 285.16 513.11 293.37V303.4C513.11 311.62 512.94 317.24 512.5 323.72C514.23 323.55 540.17 323.72 543.03 323.72C542.86 322.86 542.86 318.27 543.03 317.23C538.36 317.75 533.78 317.66 529.19 317.66C527.81 317.66 526.34 317.66 524.95 317.66C524.78 314.72 524.78 312.21 524.78 309.1C524.78 307.54 524.78 305.9 524.78 304.34C524.78 302.78 524.78 301.23 524.78 299.67C530.83 299.67 536.71 299.93 542.68 300.36C542.42 298.8 542.42 295.69 542.68 294.05C536.71 294.4 531.61 294.48 524.78 294.66C524.78 292.76 524.78 290.94 524.69 289.21C524.6 285.92 524.52 282.64 524.69 279.18H525.04C527.89 279.18 537.23 279.18 543.03 279.53C542.86 278.41 542.86 274 543.03 273.13C540.95 273.3 517.09 273.13 512.5 273.13V273.05ZM727.66 295.02C727.66 297.87 727.57 301.07 727.57 305.4C727.57 319.24 738.03 324.77 751.61 324.77C766.92 324.77 774.87 317.68 774.87 300.64C774.87 287.93 775.48 277.38 775.91 273.05C774.53 273.22 773.32 273.4 771.93 273.4C770.55 273.4 769.25 273.23 767.95 273.05C768.3 279.8 768.56 286.54 768.56 293.29C768.56 306.95 767.7 319.67 755.07 319.67C744.78 319.67 739.24 316.73 739.24 298.83C739.24 290.27 739.33 282.66 740.36 273.06C738.28 273.23 736.04 273.41 733.87 273.41C731.71 273.41 729.55 273.24 727.38 273.06C727.55 275.48 727.73 280.41 727.73 288.19C727.73 290.61 727.73 292.69 727.73 295.02H727.66ZM857.99 285.07C857.99 284.46 857.99 283.77 857.99 283.25C857.99 281.26 857.99 279.7 857.82 278.93C854.71 278.93 848.05 279.02 843.29 279.54C843.55 278.42 843.55 274.18 843.29 273.05C850.47 273.22 877.19 273.22 883.94 273.05C883.68 274.17 883.68 278.41 883.94 279.54C879.7 279.02 872.96 279.02 869.76 279.02C869.76 279.71 869.76 280.92 869.76 282.39C869.76 283.17 869.76 284.12 869.76 285.07V303.49C869.76 311.71 869.93 317.33 870.37 323.81C868.64 323.64 859.13 323.64 857.4 323.81C857.92 317.32 858.01 311.7 858.01 303.49V285.07H857.99ZM989.35 276.16C986.24 282.73 982.6 290.34 978.89 295.19H978.72C976.47 291.82 970.59 280.4 966.96 273.14C964.54 273.31 955.2 273.31 952.78 273.14C955.2 277.29 964.2 293.03 969.64 302.8C969.64 303.15 969.64 303.58 969.64 303.92C969.64 305.82 969.73 307.73 969.73 309.63C969.73 312.4 969.47 315.25 969.21 318.11C969.04 320.01 968.86 321.92 968.78 323.82C971.03 323.65 980.02 323.65 982.18 323.82C981.49 318.29 981.4 313.27 981.4 308.43C981.4 307.22 981.4 306.18 981.4 305.14C981.4 304.1 981.4 303.06 981.4 301.85C986.42 292.6 994.55 278.59 998 273.05C996.62 273.22 991.77 273.22 990.56 273.05C990.3 273.57 990.04 274.09 989.78 274.61L989.52 275.22L989.09 276.08L989.35 276.16ZM418.92 51.49C420.04 83.66 420.04 87.29 420.04 103.12V153.71C420.04 158.73 419.26 186.83 418.48 211.83C417.87 231.81 417.36 249.8 417.36 252.39C444.69 250.92 464.92 250.23 488.88 250.23C506.09 250.23 531.86 251.27 550.89 252.05C554.26 252.22 557.46 252.31 560.32 252.4C558.85 247.64 559.28 229.57 560.32 225.68C538.27 228.97 484.39 228.97 473.49 228.97H466.74C466.65 224.21 466.57 219.28 466.39 214.18C466.04 197.75 465.61 179.59 465.61 160.3C465.61 104.61 466.73 59.12 469.33 4.55002C459.99 6.02002 426.69 6.37002 417.36 4.55002C417.53 8.01002 417.79 17.87 418.14 27.81C418.41 37.74 418.66 47.68 418.92 51.49ZM870.18 174.55L885.83 212.69L901.57 252.64C908.23 252.29 952.68 252.29 958.21 252.64C941.43 217.7 916.79 163.39 902.6 132C889.2 101.73 866.88 51.31 848.9 3.40002H824.6C815.69 31.51 794.07 78.29 756.45 159.67L713.12 252.64C718.4 251.86 742.96 251.86 747.8 252.64C753.77 232.06 765.7 202.22 777.64 174.46C792.51 173.77 854.09 173.77 870.17 174.46V174.55H870.18ZM786.21 152.24L824.26 63.6L859.37 152.24C843.54 153.19 832.39 153.28 825.04 153.28C816.05 153.28 807.22 152.93 798.4 152.67C794.34 152.5 790.27 152.41 786.21 152.24ZM94.53 14.64C36.25 54.17 2 103.89 2 164.6C2 302.45 168.56 404.24 406.04 404.24C512.5 404.24 601.4 376.74 667.21 342.84H663.15C583.67 366.8 503.25 376.65 420.57 376.65C181.88 376.65 17.57 264.74 17.31 161.23C17.22 103.81 43.94 54.34 94.62 18.1V14.64H94.53ZM943.78 18.02C943.78 9.63002 936.95 3.23002 928.82 3.23002C920.69 3.23002 913.77 9.63002 913.77 18.02C913.77 26.41 920.6 32.98 928.82 32.98C937.04 32.98 943.78 26.58 943.78 18.02ZM941.1 18.02C941.1 25.28 935.74 30.82 928.91 30.82C922.08 30.82 916.63 25.29 916.63 18.02C916.63 10.75 921.99 5.39002 928.91 5.39002C935.82 5.39002 941.1 10.93 941.1 18.02ZM929.77 9.37002H923.02V26.75H925.7V19.23H928.55L933.31 26.75H936.25L931.23 19.05C933.82 18.79 935.81 17.49 935.81 14.29C935.81 10.92 933.82 9.27002 929.76 9.27002V9.37002H929.77ZM928.56 17.07H925.71V11.54H929.26C931.08 11.54 933.07 11.89 933.07 14.22C933.07 16.99 930.91 17.07 928.49 17.07H928.56Z" clip-rule="evenodd" fill-rule="evenodd"></path>
</svg>
